# xmcd
#
# Track frame offsets:
# 150
# 16375
# 30915
# 47405
# 66327
# 84637
# 99727
# 119800
# 133465
# 148610
#
# Disc length: 2240 seconds
#
#
# Revision: 0
# Processed by: cddbd v1.5.1PL0 Copyright (c) Steve Scherf et al.
# Submitted via: FreeRIP 2.80 
#
DISCID=8f08be0a
DTITLE=Jean-Pierre Fortin - Reflexion
DYEAR=1998
DGENRE=Blues
TTITLE0=L'as De Vegas
TTITLE1=Sans Eux
TTITLE2=Love And Pain
TTITLE3=Face à La Vie
TTITLE4=Reflexion
TTITLE5=Autre Part
TTITLE6=Reviens
TTITLE7=L'Animateur
TTITLE8=Wonderful Tonight
TTITLE9=Akai Tayoo (Soleil Rouge)
EXTD=Super Album!
EXTT0=
EXTT1=
EXTT2=
EXTT3=
EXTT4=
EXTT5=
EXTT6=
EXTT7=
EXTT8=
EXTT9=
PLAYORDER=
